<?xml version="1.0" encoding="UTF-8"?>
<svg id="Layer_2" data-name="Layer 2" xmlns="http://www.w3.org/2000/svg" viewBox="0 0 350.26 422.41">
  <defs>
    <style>
      .cls-1 {
        fill: #1e43da;
      }

      .cls-2 {
        fill: #fcfcfc;
      }
    </style>
  </defs>
  <g id="Layer_1-2" data-name="Layer 1">
    <g>
      <path class="cls-1" d="m.33,407.28c-.07-33.47-.15-66.94-.22-100.41-.02-10.33.04-20.66-.1-30.99-.05-3.51.1-5.37,4.66-3.82,6.86,2.33,14.3,2.15,21.35,3.58,13.05,2.67,26.17,1.73,39.22,1.51,10.49-.18,21.09-1.15,31.39-3.11,14.75-2.82,29.49-6.62,43.07-12.98,13.37-6.26,26.84-12.57,38.52-22.21,7.62-6.29,15.57-12.12,22.29-19.42,11.66-12.65,21.29-26.47,28.48-42.32,5.53-12.21,7.59-24.87,9.8-37.73,3.27-19.07-.14-37.57-5.6-55.54-3.1-10.21-7.6-20.38-13.81-29.25-8.7-12.43-18.25-24.1-30.1-34.01-8.28-6.92-16.81-13.32-25.75-20.48,2.67,0,5.34.06,8.01-.01,14.84-.4,29.67.39,44.39,1.83,10.15.99,20.2,3.77,30.04,6.89,11.67,3.7,23.07,7.94,32.94,15.48,1.4,1.07,2.81,2.27,4.7,2.49,0,0-.16-.08-.16-.08.46.73.91,1.47,1.37,2.2,0,.02.08.1.23.23.6.47,1.2.95,1.8,1.42,1.52,1.26,3.09,2.46,4.55,3.79,19.59,17.82,27.73,40.73,29.44,66.46.79,11.89-1.26,23.49-3.97,34.98-4.38,18.58-13.88,34.03-28.29,46.66-4.8,4.21-9.88,8.04-15.34,12.05,2.44,1.2,4.35,2.15,6.26,3.09,2.46,1.21,4.84,3.12,7.71.92-.42,3.87,3.51,4.54,5.33,5.53,9.7,5.24,16.79,13.27,24.21,20.99,1.57,1.63,4.1,2.22,4.89,4.65-.83,1.59.68,2.37,1.27,3.39,2.99,5.14,5.92,10.25,8.16,15.83,3.79,9.43,5.18,19.29,7.12,29.16,3.13,15.88,1.41,31.38-2.39,46.51-7.76,30.92-27.66,52.2-56.23,65.44-25.26,11.71-52.28,16.06-79.84,16.2-64.75.34-129.51.04-194.27.03-1.74,0-3.71-.7-5.14,1.03Z"/>
      <path class="cls-2" d="m.33,407.28c1.43-1.72,3.4-1.03,5.14-1.03,64.76,0,129.51.31,194.27-.03,27.55-.14,54.57-4.49,79.84-16.2,28.57-13.24,48.47-34.52,56.23-65.44,3.8-15.13,5.52-30.63,2.39-46.51-1.95-9.87-3.33-19.73-7.12-29.16-2.24-5.57-5.17-10.69-8.16-15.83-.6-1.03-2.1-1.8-1.27-3.39,14.96,15.87,23.56,34.81,27.08,56.19.35,2.11.36,4.28.53,6.41,0,0,.12.33.12.33l.39.05c1.41,21.61.44,42.85-8.92,62.96-7.01,15.07-17.01,27.61-30.5,37.35-18.95,13.69-40.46,21.08-63.19,25.2-11.25,2.04-22.62,2.98-34.13,3.3-68.71,1.91-137.42.2-206.13.82-1,0-2.02-.14-2.99.02-2.9.47-3.76-.72-3.59-3.55.22-3.82.04-7.65.04-11.48Z"/>
      <path class="cls-2" d="m287.2,198.52c-2.87,2.21-5.25.29-7.71-.92-1.92-.94-3.83-1.89-6.26-3.09,5.46-4.01,10.54-7.84,15.34-12.05,14.41-12.63,23.9-28.08,28.29-46.66,2.71-11.49,4.76-23.09,3.97-34.98-1.71-25.74-9.85-48.64-29.44-66.46-1.46-1.33-3.03-2.53-4.55-3.79,2.05-.6,3.45.57,4.89,1.76,18.39,15.17,30.26,33.96,35.38,57.65,4.35,20.13,2.77,39.62-2.91,58.72-4.67,15.73-13.37,29.6-25.88,40.84-3.57,3.21-7.16,6.29-11.11,8.98Z"/>
      <path class="cls-2" d="m285.02,29.15c-.15-.13-.23-.21-.23-.23.24-.17.48-.33.72-.5.07.12.15.24.22.36-.24.12-.47.25-.71.37Z"/>
      <path class="cls-1" d="m349.74,292.65l-.39-.05s-.12-.33-.12-.33c.23-.02.45-.05.67-.08-.06.15-.11.3-.17.46Z"/>
      <path class="cls-2" d="m283.43,26.72s.16.08.16.08c0,0-.16-.08-.16-.08Z"/>
    </g>
  </g>
</svg>